<svg width="236" height="232" viewBox="0 0 236 232" fill="none" xmlns="http://www.w3.org/2000/svg">
<rect width="235.583" height="231.429" rx="5" fill="#B2AE7F" fill-opacity="0.4"/>
<path d="M85.76 127.24C84.224 127.24 82.808 126.984 81.512 126.472C80.232 125.944 79.232 125.224 78.512 124.312C78.384 124.152 78.32 123.984 78.32 123.808C78.32 123.584 78.44 123.368 78.68 123.16C78.808 123.064 78.944 123.016 79.088 123.016C79.376 123.016 79.632 123.152 79.856 123.424C80.512 124.144 81.336 124.704 82.328 125.104C83.336 125.488 84.48 125.68 85.76 125.68C87.168 125.68 88.256 125.424 89.024 124.912C89.792 124.384 90.176 123.64 90.176 122.68C90.176 121.848 89.8 121.176 89.048 120.664C88.312 120.152 87.056 119.696 85.28 119.296C82.96 118.784 81.288 118.144 80.264 117.376C79.256 116.592 78.752 115.56 78.752 114.28C78.752 112.952 79.312 111.904 80.432 111.136C81.568 110.352 83.096 109.96 85.016 109.96C86.472 109.96 87.784 110.216 88.952 110.728C90.136 111.24 90.976 111.928 91.472 112.792C91.568 112.952 91.616 113.104 91.616 113.248C91.616 113.504 91.48 113.728 91.208 113.92C91.096 113.984 90.968 114.016 90.824 114.016C90.472 114.016 90.2 113.88 90.008 113.608C89.544 112.936 88.888 112.424 88.04 112.072C87.192 111.704 86.184 111.52 85.016 111.52C82.056 111.52 80.576 112.44 80.576 114.28C80.576 114.84 80.728 115.312 81.032 115.696C81.336 116.064 81.824 116.4 82.496 116.704C83.184 116.992 84.136 117.28 85.352 117.568C87.72 118.128 89.424 118.808 90.464 119.608C91.504 120.392 92.024 121.416 92.024 122.68C92.024 124.088 91.456 125.2 90.32 126.016C89.2 126.832 87.68 127.24 85.76 127.24ZM100.896 127.24C98.8159 127.24 97.2079 126.704 96.0719 125.632C94.9359 124.56 94.3679 123.04 94.3679 121.072C94.3679 119.184 94.9439 117.704 96.0959 116.632C97.2479 115.544 98.8239 115 100.824 115C102.056 115 103.152 115.2 104.112 115.6C105.072 115.984 105.816 116.536 106.344 117.256C106.888 117.96 107.16 118.768 107.16 119.68C107.16 120.352 106.968 120.872 106.584 121.24C106.216 121.608 105.704 121.792 105.048 121.792H96.1679C96.1679 123.024 96.5839 123.992 97.4159 124.696C98.2479 125.384 99.4079 125.728 100.896 125.728C101.808 125.728 102.592 125.632 103.248 125.44C103.904 125.232 104.52 124.904 105.096 124.456C105.4 124.2 105.648 124.072 105.84 124.072C105.984 124.072 106.12 124.136 106.248 124.264C106.472 124.456 106.584 124.656 106.584 124.864C106.584 125.024 106.488 125.2 106.296 125.392C105.64 126.016 104.872 126.48 103.992 126.784C103.112 127.088 102.08 127.24 100.896 127.24ZM104.52 120.376C104.808 120.376 105.024 120.32 105.168 120.208C105.312 120.08 105.384 119.856 105.384 119.536C105.384 118.96 105.192 118.44 104.808 117.976C104.424 117.512 103.88 117.152 103.176 116.896C102.488 116.64 101.704 116.512 100.824 116.512C99.3999 116.512 98.2719 116.864 97.4399 117.568C96.6239 118.256 96.2159 119.192 96.2159 120.376H104.52ZM110.763 127.24C110.491 127.24 110.275 127.16 110.115 127C109.971 126.824 109.899 126.584 109.899 126.28V115.96C109.899 115.656 109.971 115.424 110.115 115.264C110.259 115.088 110.475 115 110.763 115C111.035 115 111.243 115.088 111.387 115.264C111.547 115.424 111.627 115.656 111.627 115.96V117.4C112.715 115.96 114.219 115.24 116.139 115.24H116.739C117.043 115.24 117.283 115.312 117.459 115.456C117.635 115.584 117.723 115.768 117.723 116.008C117.723 116.248 117.635 116.432 117.459 116.56C117.283 116.688 117.043 116.752 116.739 116.752H116.067C114.707 116.752 113.627 117.144 112.827 117.928C112.043 118.696 111.651 119.744 111.651 121.072V126.28C111.651 126.568 111.571 126.8 111.411 126.976C111.267 127.152 111.051 127.24 110.763 127.24ZM124.545 127.24C122.977 127.24 121.745 126.792 120.849 125.896C119.969 125 119.529 123.752 119.529 122.152V115.96C119.529 115.656 119.609 115.424 119.769 115.264C119.929 115.088 120.145 115 120.417 115C120.689 115 120.897 115.088 121.041 115.264C121.201 115.424 121.281 115.656 121.281 115.96V122.152C121.281 123.288 121.585 124.168 122.193 124.792C122.801 125.416 123.649 125.728 124.737 125.728C125.601 125.728 126.369 125.536 127.041 125.152C127.713 124.768 128.233 124.232 128.601 123.544C128.985 122.856 129.177 122.064 129.177 121.168V115.96C129.177 115.656 129.249 115.424 129.393 115.264C129.553 115.088 129.777 115 130.065 115C130.337 115 130.545 115.088 130.689 115.264C130.849 115.424 130.929 115.656 130.929 115.96V126.28C130.929 126.584 130.849 126.824 130.689 127C130.545 127.16 130.337 127.24 130.065 127.24C129.777 127.24 129.553 127.152 129.393 126.976C129.249 126.8 129.177 126.568 129.177 126.28V124.864C128.585 125.632 127.897 126.224 127.113 126.64C126.329 127.04 125.473 127.24 124.545 127.24ZM135.137 127.24C134.865 127.24 134.649 127.16 134.489 127C134.345 126.824 134.273 126.584 134.273 126.28V115.96C134.273 115.656 134.345 115.424 134.489 115.264C134.649 115.088 134.865 115 135.137 115C135.425 115 135.641 115.088 135.785 115.264C135.945 115.44 136.025 115.672 136.025 115.96V117.328C136.457 116.608 137.009 116.04 137.681 115.624C138.369 115.208 139.089 115 139.841 115C140.593 115 141.257 115.208 141.833 115.624C142.409 116.024 142.833 116.592 143.105 117.328C143.665 116.576 144.281 116 144.953 115.6C145.641 115.2 146.353 115 147.089 115C148.353 115 149.305 115.392 149.945 116.176C150.585 116.944 150.905 118.088 150.905 119.608V126.28C150.905 126.584 150.825 126.824 150.665 127C150.505 127.16 150.289 127.24 150.017 127.24C149.441 127.24 149.153 126.92 149.153 126.28V119.56C149.153 118.536 148.977 117.776 148.625 117.28C148.289 116.768 147.705 116.512 146.873 116.512C146.169 116.512 145.537 116.728 144.977 117.16C144.417 117.576 143.969 118.184 143.633 118.984V126.28C143.633 126.584 143.553 126.824 143.393 127C143.233 127.16 143.017 127.24 142.745 127.24C142.473 127.24 142.257 127.16 142.097 127C141.953 126.824 141.881 126.584 141.881 126.28V119.92C141.881 118.816 141.681 117.976 141.281 117.4C140.897 116.808 140.345 116.512 139.625 116.512C138.937 116.512 138.321 116.704 137.777 117.088C137.233 117.456 136.801 117.968 136.481 118.624C136.177 119.28 136.025 120.024 136.025 120.856V126.28C136.025 126.568 135.945 126.8 135.785 126.976C135.641 127.152 135.425 127.24 135.137 127.24Z" fill="#34322D"/>
</svg>
