<svg width="236" height="232" viewBox="0 0 236 232" fill="none" xmlns="http://www.w3.org/2000/svg">
<rect width="235.583" height="231.429" rx="5" fill="#B2AE7F" fill-opacity="0.4"/>
<path d="M85.648 125.24C83.984 125.24 82.52 124.888 81.256 124.184C80.008 123.464 79.04 122.456 78.352 121.16C77.664 119.848 77.32 118.336 77.32 116.624C77.32 114.896 77.664 113.376 78.352 112.064C79.04 110.752 80.008 109.744 81.256 109.04C82.52 108.32 83.976 107.96 85.624 107.96C87 107.96 88.264 108.192 89.416 108.656C90.584 109.12 91.496 109.768 92.152 110.6C92.28 110.744 92.344 110.92 92.344 111.128C92.344 111.384 92.232 111.592 92.008 111.752C91.864 111.848 91.704 111.896 91.528 111.896C91.224 111.896 90.968 111.776 90.76 111.536C90.248 110.88 89.552 110.376 88.672 110.024C87.792 109.672 86.776 109.496 85.624 109.496C84.296 109.496 83.144 109.784 82.168 110.36C81.192 110.936 80.44 111.76 79.912 112.832C79.4 113.904 79.144 115.168 79.144 116.624C79.144 118.064 79.4 119.32 79.912 120.392C80.44 121.448 81.192 122.264 82.168 122.84C83.16 123.416 84.32 123.704 85.648 123.704C86.88 123.704 87.952 123.528 88.864 123.176C89.792 122.808 90.52 122.304 91.048 121.664C91.288 121.408 91.544 121.28 91.816 121.28C92.008 121.28 92.168 121.336 92.296 121.448C92.52 121.64 92.632 121.848 92.632 122.072C92.632 122.264 92.56 122.448 92.416 122.624C91.76 123.424 90.824 124.064 89.608 124.544C88.408 125.008 87.088 125.24 85.648 125.24ZM96.4977 125.24C96.2257 125.24 96.0097 125.16 95.8497 125C95.7057 124.824 95.6337 124.584 95.6337 124.28V113.96C95.6337 113.656 95.7057 113.424 95.8497 113.264C95.9937 113.088 96.2097 113 96.4977 113C96.7697 113 96.9777 113.088 97.1217 113.264C97.2817 113.424 97.3617 113.656 97.3617 113.96V115.4C98.4497 113.96 99.9537 113.24 101.874 113.24H102.474C102.778 113.24 103.018 113.312 103.194 113.456C103.37 113.584 103.458 113.768 103.458 114.008C103.458 114.248 103.37 114.432 103.194 114.56C103.018 114.688 102.778 114.752 102.474 114.752H101.802C100.442 114.752 99.3617 115.144 98.5617 115.928C97.7777 116.696 97.3857 117.744 97.3857 119.072V124.28C97.3857 124.568 97.3057 124.8 97.1457 124.976C97.0017 125.152 96.7857 125.24 96.4977 125.24ZM110.771 125.24C108.691 125.24 107.083 124.704 105.947 123.632C104.811 122.56 104.243 121.04 104.243 119.072C104.243 117.184 104.819 115.704 105.971 114.632C107.123 113.544 108.699 113 110.699 113C111.931 113 113.027 113.2 113.987 113.6C114.947 113.984 115.691 114.536 116.219 115.256C116.763 115.96 117.035 116.768 117.035 117.68C117.035 118.352 116.843 118.872 116.459 119.24C116.091 119.608 115.579 119.792 114.923 119.792H106.043C106.043 121.024 106.459 121.992 107.291 122.696C108.123 123.384 109.283 123.728 110.771 123.728C111.683 123.728 112.467 123.632 113.123 123.44C113.779 123.232 114.395 122.904 114.971 122.456C115.275 122.2 115.523 122.072 115.715 122.072C115.859 122.072 115.995 122.136 116.123 122.264C116.347 122.456 116.459 122.656 116.459 122.864C116.459 123.024 116.363 123.2 116.171 123.392C115.515 124.016 114.747 124.48 113.867 124.784C112.987 125.088 111.955 125.24 110.771 125.24ZM114.395 118.376C114.683 118.376 114.899 118.32 115.043 118.208C115.187 118.08 115.259 117.856 115.259 117.536C115.259 116.96 115.067 116.44 114.683 115.976C114.299 115.512 113.755 115.152 113.051 114.896C112.363 114.64 111.579 114.512 110.699 114.512C109.275 114.512 108.147 114.864 107.315 115.568C106.499 116.256 106.091 117.192 106.091 118.376H114.395ZM123.533 125.24C121.965 125.24 120.733 124.896 119.837 124.208C118.957 123.52 118.517 122.568 118.517 121.352C118.517 120.152 118.981 119.2 119.909 118.496C120.853 117.792 122.133 117.44 123.749 117.44C124.693 117.44 125.525 117.568 126.245 117.824C126.981 118.08 127.549 118.424 127.949 118.856V117.32C127.949 116.408 127.645 115.712 127.037 115.232C126.445 114.752 125.573 114.512 124.421 114.512C122.933 114.512 121.645 114.864 120.557 115.568C120.285 115.728 120.061 115.808 119.885 115.808C119.725 115.808 119.565 115.744 119.405 115.616C119.229 115.472 119.141 115.288 119.141 115.064C119.141 114.824 119.245 114.624 119.453 114.464C120.029 114.016 120.757 113.664 121.637 113.408C122.533 113.136 123.445 113 124.373 113C126.069 113 127.381 113.384 128.309 114.152C129.253 114.92 129.725 116 129.725 117.392V124.304C129.725 124.928 129.437 125.24 128.861 125.24C128.605 125.24 128.397 125.16 128.237 125C128.077 124.824 127.997 124.6 127.997 124.328V123.464C127.005 124.648 125.517 125.24 123.533 125.24ZM123.749 123.776C124.997 123.776 126.013 123.544 126.797 123.08C127.581 122.6 127.973 121.984 127.973 121.232C127.973 120.48 127.605 119.904 126.869 119.504C126.149 119.088 125.125 118.88 123.797 118.88C122.677 118.88 121.813 119.096 121.205 119.528C120.597 119.944 120.293 120.552 120.293 121.352C120.293 122.136 120.589 122.736 121.181 123.152C121.773 123.568 122.629 123.776 123.749 123.776ZM133.809 125.24C133.537 125.24 133.321 125.16 133.161 125C133.017 124.824 132.945 124.584 132.945 124.28V113.96C132.945 113.656 133.017 113.424 133.161 113.264C133.321 113.088 133.537 113 133.809 113C134.097 113 134.313 113.088 134.457 113.264C134.617 113.44 134.697 113.672 134.697 113.96V115.328C135.129 114.608 135.681 114.04 136.353 113.624C137.041 113.208 137.761 113 138.513 113C139.265 113 139.929 113.208 140.505 113.624C141.081 114.024 141.505 114.592 141.777 115.328C142.337 114.576 142.953 114 143.625 113.6C144.313 113.2 145.025 113 145.761 113C147.025 113 147.977 113.392 148.617 114.176C149.257 114.944 149.577 116.088 149.577 117.608V124.28C149.577 124.584 149.497 124.824 149.337 125C149.177 125.16 148.961 125.24 148.689 125.24C148.113 125.24 147.825 124.92 147.825 124.28V117.56C147.825 116.536 147.649 115.776 147.297 115.28C146.961 114.768 146.377 114.512 145.545 114.512C144.841 114.512 144.209 114.728 143.649 115.16C143.089 115.576 142.641 116.184 142.305 116.984V124.28C142.305 124.584 142.225 124.824 142.065 125C141.905 125.16 141.689 125.24 141.417 125.24C141.145 125.24 140.929 125.16 140.769 125C140.625 124.824 140.553 124.584 140.553 124.28V117.92C140.553 116.816 140.353 115.976 139.953 115.4C139.569 114.808 139.017 114.512 138.297 114.512C137.609 114.512 136.993 114.704 136.449 115.088C135.905 115.456 135.473 115.968 135.153 116.624C134.849 117.28 134.697 118.024 134.697 118.856V124.28C134.697 124.568 134.617 124.8 134.457 124.976C134.313 125.152 134.097 125.24 133.809 125.24Z" fill="#34322D"/>
</svg>
