<svg width="236" height="232" viewBox="0 0 236 232" fill="none" xmlns="http://www.w3.org/2000/svg">
<rect width="235.583" height="231.429" rx="5" fill="#B2AE7F" fill-opacity="0.4"/>
<path d="M58.808 127.24C58.536 127.24 58.32 127.16 58.16 127C58 126.824 57.92 126.584 57.92 126.28V113.08C57.92 112.184 58.184 111.48 58.712 110.968C59.256 110.456 60.008 110.2 60.968 110.2H68.408C69.032 110.2 69.344 110.456 69.344 110.968C69.344 111.192 69.264 111.368 69.104 111.496C68.944 111.624 68.712 111.688 68.408 111.688H60.992C60.608 111.688 60.296 111.816 60.056 112.072C59.832 112.328 59.72 112.664 59.72 113.08V117.904H66.584C67.208 117.904 67.52 118.16 67.52 118.672C67.52 118.912 67.432 119.096 67.256 119.224C67.096 119.352 66.872 119.416 66.584 119.416H59.72V126.28C59.72 126.584 59.64 126.824 59.48 127C59.32 127.16 59.096 127.24 58.808 127.24ZM74.8454 127.24C73.2774 127.24 72.0454 126.896 71.1494 126.208C70.2694 125.52 69.8294 124.568 69.8294 123.352C69.8294 122.152 70.2934 121.2 71.2214 120.496C72.1654 119.792 73.4454 119.44 75.0614 119.44C76.0054 119.44 76.8374 119.568 77.5574 119.824C78.2934 120.08 78.8614 120.424 79.2614 120.856V119.32C79.2614 118.408 78.9574 117.712 78.3494 117.232C77.7574 116.752 76.8854 116.512 75.7334 116.512C74.2454 116.512 72.9574 116.864 71.8694 117.568C71.5974 117.728 71.3734 117.808 71.1974 117.808C71.0374 117.808 70.8774 117.744 70.7174 117.616C70.5414 117.472 70.4534 117.288 70.4534 117.064C70.4534 116.824 70.5574 116.624 70.7654 116.464C71.3414 116.016 72.0694 115.664 72.9494 115.408C73.8454 115.136 74.7574 115 75.6854 115C77.3814 115 78.6934 115.384 79.6214 116.152C80.5654 116.92 81.0374 118 81.0374 119.392V126.304C81.0374 126.928 80.7494 127.24 80.1734 127.24C79.9174 127.24 79.7094 127.16 79.5494 127C79.3894 126.824 79.3094 126.6 79.3094 126.328V125.464C78.3174 126.648 76.8294 127.24 74.8454 127.24ZM75.0614 125.776C76.3094 125.776 77.3254 125.544 78.1094 125.08C78.8934 124.6 79.2854 123.984 79.2854 123.232C79.2854 122.48 78.9174 121.904 78.1814 121.504C77.4614 121.088 76.4374 120.88 75.1094 120.88C73.9894 120.88 73.1254 121.096 72.5174 121.528C71.9094 121.944 71.6054 122.552 71.6054 123.352C71.6054 124.136 71.9014 124.736 72.4934 125.152C73.0854 125.568 73.9414 125.776 75.0614 125.776ZM90.1136 127.24C88.8336 127.24 87.7056 126.992 86.7296 126.496C85.7536 125.984 85.0016 125.264 84.4736 124.336C83.9456 123.408 83.6816 122.328 83.6816 121.096C83.6816 119.88 83.9456 118.816 84.4736 117.904C85.0016 116.976 85.7536 116.264 86.7296 115.768C87.7056 115.256 88.8336 115 90.1136 115C91.3136 115 92.3536 115.168 93.2336 115.504C94.1136 115.84 94.8096 116.336 95.3216 116.992C95.4496 117.168 95.5136 117.336 95.5136 117.496C95.5136 117.736 95.3936 117.952 95.1536 118.144C95.0416 118.24 94.8976 118.288 94.7216 118.288C94.4496 118.288 94.1936 118.168 93.9536 117.928C93.1056 116.984 91.8256 116.512 90.1136 116.512C88.6256 116.512 87.4736 116.912 86.6576 117.712C85.8576 118.496 85.4576 119.624 85.4576 121.096C85.4576 122.552 85.8656 123.688 86.6816 124.504C87.4976 125.32 88.6416 125.728 90.1136 125.728C90.9296 125.728 91.6816 125.608 92.3696 125.368C93.0576 125.112 93.6256 124.752 94.0736 124.288C94.3456 124.016 94.6016 123.88 94.8416 123.88C94.9856 123.88 95.1456 123.944 95.3216 124.072C95.5456 124.264 95.6576 124.472 95.6576 124.696C95.6576 124.904 95.5696 125.08 95.3936 125.224C94.6096 125.928 93.7936 126.44 92.9456 126.76C92.0976 127.08 91.1536 127.24 90.1136 127.24ZM104.271 127.24C102.191 127.24 100.583 126.704 99.4469 125.632C98.3109 124.56 97.7429 123.04 97.7429 121.072C97.7429 119.184 98.3189 117.704 99.4709 116.632C100.623 115.544 102.199 115 104.199 115C105.431 115 106.527 115.2 107.487 115.6C108.447 115.984 109.191 116.536 109.719 117.256C110.263 117.96 110.535 118.768 110.535 119.68C110.535 120.352 110.343 120.872 109.959 121.24C109.591 121.608 109.079 121.792 108.423 121.792H99.5429C99.5429 123.024 99.9589 123.992 100.791 124.696C101.623 125.384 102.783 125.728 104.271 125.728C105.183 125.728 105.967 125.632 106.623 125.44C107.279 125.232 107.895 124.904 108.471 124.456C108.775 124.2 109.023 124.072 109.215 124.072C109.359 124.072 109.495 124.136 109.623 124.264C109.847 124.456 109.959 124.656 109.959 124.864C109.959 125.024 109.863 125.2 109.671 125.392C109.015 126.016 108.247 126.48 107.367 126.784C106.487 127.088 105.455 127.24 104.271 127.24ZM107.895 120.376C108.183 120.376 108.399 120.32 108.543 120.208C108.687 120.08 108.759 119.856 108.759 119.536C108.759 118.96 108.567 118.44 108.183 117.976C107.799 117.512 107.255 117.152 106.551 116.896C105.863 116.64 105.079 116.512 104.199 116.512C102.775 116.512 101.647 116.864 100.815 117.568C99.9989 118.256 99.5909 119.192 99.5909 120.376H107.895ZM123.416 127.24C122.808 127.24 122.28 127.048 121.832 126.664C121.384 126.264 121.096 125.736 120.968 125.08L119.144 115.888C119.096 115.632 119.152 115.424 119.312 115.264C119.472 115.088 119.688 115 119.96 115C120.28 115 120.512 115.056 120.656 115.168C120.816 115.264 120.92 115.448 120.968 115.72L122.696 124.888C122.792 125.448 123.032 125.728 123.416 125.728C123.64 125.728 123.808 125.664 123.92 125.536C124.032 125.408 124.112 125.192 124.16 124.888L125.456 116.8C125.536 116.272 125.76 115.84 126.128 115.504C126.496 115.168 126.928 115 127.424 115C127.92 115 128.352 115.168 128.72 115.504C129.104 115.84 129.336 116.272 129.416 116.8L130.688 124.888C130.736 125.192 130.816 125.408 130.928 125.536C131.056 125.664 131.232 125.728 131.456 125.728C131.84 125.728 132.08 125.448 132.176 124.888L133.88 115.72C133.928 115.448 134.024 115.264 134.168 115.168C134.328 115.056 134.568 115 134.888 115C135.192 115 135.416 115.088 135.56 115.264C135.72 115.44 135.776 115.648 135.728 115.888L133.88 125.08C133.736 125.752 133.44 126.28 132.992 126.664C132.544 127.048 132.032 127.24 131.456 127.24C130.16 127.24 129.392 126.504 129.152 125.032L127.88 117.136C127.8 116.72 127.648 116.512 127.424 116.512C127.184 116.512 127.032 116.72 126.968 117.136L125.696 125.032C125.456 126.504 124.696 127.24 123.416 127.24ZM142.111 127.24C140.543 127.24 139.311 126.896 138.415 126.208C137.535 125.52 137.095 124.568 137.095 123.352C137.095 122.152 137.559 121.2 138.487 120.496C139.431 119.792 140.711 119.44 142.327 119.44C143.271 119.44 144.103 119.568 144.823 119.824C145.559 120.08 146.127 120.424 146.527 120.856V119.32C146.527 118.408 146.223 117.712 145.615 117.232C145.023 116.752 144.151 116.512 142.999 116.512C141.511 116.512 140.223 116.864 139.135 117.568C138.863 117.728 138.639 117.808 138.463 117.808C138.303 117.808 138.143 117.744 137.983 117.616C137.807 117.472 137.719 117.288 137.719 117.064C137.719 116.824 137.823 116.624 138.031 116.464C138.607 116.016 139.335 115.664 140.215 115.408C141.111 115.136 142.023 115 142.951 115C144.647 115 145.959 115.384 146.887 116.152C147.831 116.92 148.303 118 148.303 119.392V126.304C148.303 126.928 148.015 127.24 147.439 127.24C147.183 127.24 146.975 127.16 146.815 127C146.655 126.824 146.575 126.6 146.575 126.328V125.464C145.583 126.648 144.095 127.24 142.111 127.24ZM142.327 125.776C143.575 125.776 144.591 125.544 145.375 125.08C146.159 124.6 146.551 123.984 146.551 123.232C146.551 122.48 146.183 121.904 145.447 121.504C144.727 121.088 143.703 120.88 142.375 120.88C141.255 120.88 140.391 121.096 139.783 121.528C139.175 121.944 138.871 122.552 138.871 123.352C138.871 124.136 139.167 124.736 139.759 125.152C140.351 125.568 141.207 125.776 142.327 125.776ZM156.659 127.24C155.539 127.24 154.483 127.032 153.491 126.616C152.499 126.184 151.715 125.592 151.139 124.84C151.027 124.68 150.971 124.52 150.971 124.36C150.971 124.2 151.011 124.064 151.091 123.952C151.187 123.824 151.307 123.728 151.451 123.664C151.579 123.616 151.683 123.592 151.763 123.592C151.907 123.592 152.027 123.632 152.123 123.712C152.235 123.776 152.363 123.888 152.507 124.048C153.547 125.152 154.931 125.704 156.659 125.704C157.491 125.704 158.163 125.56 158.675 125.272C159.187 124.984 159.443 124.584 159.443 124.072C159.443 123.704 159.339 123.408 159.131 123.184C158.939 122.944 158.603 122.728 158.123 122.536C157.659 122.328 156.891 122.04 155.819 121.672C154.779 121.32 153.963 120.984 153.371 120.664C152.779 120.344 152.339 119.984 152.051 119.584C151.763 119.168 151.619 118.664 151.619 118.072C151.619 117.144 152.019 116.4 152.819 115.84C153.635 115.28 154.715 115 156.059 115C157.051 115 157.971 115.176 158.819 115.528C159.667 115.864 160.307 116.32 160.739 116.896C160.867 117.072 160.931 117.24 160.931 117.4C160.931 117.64 160.803 117.832 160.547 117.976C160.387 118.072 160.227 118.12 160.067 118.12C159.795 118.12 159.539 118 159.299 117.76C158.883 117.344 158.427 117.04 157.931 116.848C157.435 116.64 156.803 116.536 156.035 116.536C155.187 116.536 154.539 116.672 154.091 116.944C153.643 117.216 153.419 117.6 153.419 118.096C153.419 118.464 153.507 118.76 153.683 118.984C153.875 119.192 154.171 119.384 154.571 119.56C154.987 119.72 155.707 119.968 156.731 120.304C157.883 120.688 158.771 121.056 159.395 121.408C160.035 121.744 160.491 122.12 160.763 122.536C161.051 122.952 161.195 123.464 161.195 124.072C161.195 125.032 160.771 125.8 159.923 126.376C159.091 126.952 158.003 127.24 156.659 127.24ZM164.834 127.24C164.562 127.24 164.346 127.16 164.186 127C164.042 126.824 163.97 126.584 163.97 126.28V109.744C163.97 109.44 164.042 109.208 164.186 109.048C164.346 108.872 164.562 108.784 164.834 108.784C165.106 108.784 165.322 108.872 165.482 109.048C165.642 109.208 165.722 109.44 165.722 109.744V117.376C166.314 116.592 167.026 116 167.858 115.6C168.706 115.2 169.626 115 170.618 115C172.138 115 173.306 115.424 174.122 116.272C174.954 117.12 175.37 118.336 175.37 119.92V126.28C175.37 126.584 175.29 126.824 175.13 127C174.97 127.16 174.754 127.24 174.482 127.24C174.194 127.24 173.978 127.16 173.834 127C173.69 126.824 173.618 126.584 173.618 126.28V119.92C173.618 117.648 172.546 116.512 170.402 116.512C168.994 116.512 167.858 116.928 166.994 117.76C166.146 118.592 165.722 119.696 165.722 121.072V126.28C165.722 126.568 165.642 126.8 165.482 126.976C165.338 127.152 165.122 127.24 164.834 127.24Z" fill="#34322D"/>
</svg>
